<svg width="20" height="16" viewBox="0 0 20 16" fill="none" xmlns="http://www.w3.org/2000/svg">
<path d="M14 3.99997C14 6.20911 12.2091 7.99997 10 7.99997C7.79086 7.99997 6 6.20911 6 3.99997C6 1.79083 7.79086 -3.05176e-05 10 -3.05176e-05C12.2091 -3.05176e-05 14 1.79083 14 3.99997Z" fill="#1D70B8"/>
<path d="M3.35594 11.1852C1.69493 12.2963 2.02712 16 2.02712 16H17.9729C17.9729 16 18.3051 12.2963 16.6441 11.1852C14.983 10.0741 13.6542 9.33338 13.6542 9.33338C13.6542 9.33338 11.5676 10.0307 10 10.0307C8.43243 10.0307 6.34575 9.33338 6.34575 9.33338C6.34575 9.33338 5.01696 10.0741 3.35594 11.1852Z" fill="#1D70B8"/>
</svg>
